<svg xmlns="http://www.w3.org/2000/svg" width="26.093" height="31.97" viewBox="0 0 26.093 31.97">
  <defs>
    <style>
      .cls-1 {
        fill: #709dca;
        fill-rule: evenodd;
      }
    </style>
  </defs>
  <path id="Globe_2" data-name="Globe 2" class="cls-1" d="M828.975,1145.05a14.823,14.823,0,0,1-5.635-1.09,1,1,0,1,1,.75-1.85,12.886,12.886,0,0,0,4.885.94,12.639,12.639,0,0,0,13.072-13.07,12.775,12.775,0,0,0-6.45-11.07,1,1,0,0,1,1.013-1.73,14.784,14.784,0,0,1,7.437,12.8C844.047,1138.71,837.708,1145.05,828.975,1145.05Zm-0.007-24.02a9.01,9.01,0,1,1-9.015,9.04,9.046,9.046,0,0,1,9.015-9.04m0-2a11.01,11.01,0,1,0,11.012,11.04,11.038,11.038,0,0,0-11.012-11.04h0Zm2.01,28.93a1.031,1.031,0,0,1-.992,1.06h0a1.031,1.031,0,0,1-.993-1.06v-3.6a1.034,1.034,0,0,1,.993-1.07h0a1.034,1.034,0,0,1,.992,1.07v3.6Zm4.057,0.06a1.025,1.025,0,0,1-1.045,1h-7.9a1.025,1.025,0,0,1-1.045-1h0a1.025,1.025,0,0,1,1.045-1h7.9a1.025,1.025,0,0,1,1.045,1h0Z" transform="translate(-817.938 -1117.06)"/>
</svg>
