<svg xmlns="http://www.w3.org/2000/svg" width="32" height="31.969" viewBox="0 0 32 31.969">
  <defs>
    <style>
      .cls-1 {
        fill: #709dca;
        fill-rule: evenodd;
      }
    </style>
  </defs>
  <path id="Layers" class="cls-1" d="M214.2,967.615a1,1,0,0,1-.478-0.122l-14.847-8.085a1,1,0,0,1,.029-1.771l15-7.541a1.007,1.007,0,0,1,.9,0l14.847,7.541a1,1,0,0,1,.022,1.771l-15,8.085A1,1,0,0,1,214.2,967.615Zm-12.69-9.05,12.693,6.912,12.843-6.92-12.692-6.447Zm27.975,6.421-2.968-1.507-2.143,1.155,2.5,1.27-12.843,6.921-12.693-6.912,2.666-1.34-2.137-1.164-3.135,1.575a1,1,0,0,0-.029,1.772l14.847,8.085a1.011,1.011,0,0,0,.478.122,1,1,0,0,0,.475-0.12l15-8.085A1,1,0,0,0,229.48,964.986Zm0,7-2.812-1.382-2.143,1.156,2.344,1.144-12.843,6.921-12.693-6.912,2.478-1.121-2.136-1.164-2.948,1.356a1,1,0,0,0-.029,1.772l14.847,8.085a1,1,0,0,0,.953,0l15-8.084A1,1,0,0,0,229.48,971.986Z" transform="translate(-198.188 -950)"/>
</svg>
