<svg xmlns="http://www.w3.org/2000/svg" width="32" height="32" viewBox="0 0 32 32">
  <defs>
    <style>
      .cls-1 {
        fill: #ffc155;
        fill-rule: evenodd;
      }
    </style>
  </defs>
  <path id="Tools" class="cls-1" d="M199.519,786.519a2.981,2.981,0,0,1-2.121-.879l-2.1-2.105a1,1,0,0,1,0-1.414l2.828-2.828a1,1,0,0,1,1.414,0l2.106,2.105A3,3,0,0,1,199.519,786.519Zm-2.105-3.691,1.4,1.4a1.027,1.027,0,0,0,1.415,0,1,1,0,0,0,0-1.415l-1.4-1.4ZM223,811a3.973,3.973,0,0,1-2.828-1.172l-8.475-8.475a1,1,0,0,1,0-1.414l4.242-4.242a1.029,1.029,0,0,1,1.414,0l8.475,8.475A4,4,0,0,1,223,811Zm-9.182-10.354,7.768,7.768a2.047,2.047,0,0,0,2.828,0,2,2,0,0,0,0-2.828l-7.768-7.768Zm-5.968-7.8a1,1,0,0,1-.707-0.293l-6.7-6.7a1,1,0,0,1,1.414-1.414l6.7,6.7A1,1,0,0,1,207.85,792.85ZM203,805a2,2,0,1,1-2-2A2,2,0,0,1,203,805Zm15-8a8.921,8.921,0,0,1-2.027-.237,1,1,0,0,1,.453-1.948A6.978,6.978,0,0,0,225,788c0-.032,0-0.063,0-0.094l-0.331.331a4.883,4.883,0,0,1-6.905-6.9L218.1,781a6.981,6.981,0,0,0-6.91,8.577,1,1,0,1,1-1.949.448,8.987,8.987,0,0,1,11.236-10.675,1,1,0,0,1,.432,1.669l-1.726,1.727a2.887,2.887,0,0,0,0,4.076,2.947,2.947,0,0,0,4.075,0l1.727-1.728a1,1,0,0,1,1.669.434A8.984,8.984,0,0,1,218,797Zm-17,14a6,6,0,0,1-4.242-10.243l12.778-11.694a1,1,0,0,1,1.35,1.476L198.14,802.2a4,4,0,0,0,.032,5.625,4.093,4.093,0,0,0,5.656,0l11.634-12.714a1,1,0,1,1,1.474,1.351L205.272,809.21A5.981,5.981,0,0,1,201,811Z" transform="translate(-195 -779)"/>
</svg>
